<?xml version="1.0" encoding="utf-8"?>
<!-- Generator: Adobe Illustrator 17.0.1, SVG Export Plug-In . SVG Version: 6.00 Build 0)  -->
<!DOCTYPE svg PUBLIC "-//W3C//DTD SVG 1.1//EN" "http://www.w3.org/Graphics/SVG/1.1/DTD/svg11.dtd">
<svg version="1.1" id="Layer_1" xmlns="http://www.w3.org/2000/svg" xmlns:xlink="http://www.w3.org/1999/xlink" x="0px" y="0px"
	 width="792px" height="612px" viewBox="0 0 792 612" enable-background="new 0 0 792 612" xml:space="preserve">
<g>
	<path fill="#006769" d="M298.23,421.115c-24.989-47.007-58.889-19.607-94.689-44.595c-11.598-8.095-29.124-20.972-43.743-16.952
		c-33.205-27.511-33.041-25.209-13.436-63.205c21.666-41.99,40.994-85.512,52.643-131.441c10.954-43.188,7.395-40.119,53.314-36.548
		c30.217,2.35,60.433,4.7,90.65,7.049c-46.573,15.238-43.629,35.347-58.128,76.943c-11.336,32.524-37.085,76.861,10.649,90.133
		c45.144,12.552,69.602-29.505,86.172-64.835c17.565-37.451,84.471,32.153,96.862,41.68c26.852,20.647,48.098,57.606,71.758,82.495
		c11.994,12.617,65.175,48.689,64.832,65.67c-2.152,106.308-135.323-50.627-154.687-74.008
		c14.344,27.074,32.389,52.27,53.533,74.458c15.251,16.004,65.964,39.453,49.274,64.81
		c-38.935,59.155-126.383-52.723-151.083-75.925c21.413,37.077,57.33,72.597,93.262,95.542
		c-17.656,18.064-48.638,21.139-69.897,8.793c-9.554-5.548-45.549-42.268-55.053-40.572c17.429,19.024,35.173,36.192,55.306,52.344
		C351.523,552.386,369.102,388.909,298.23,421.115C295.383,415.76,304.9,418.084,298.23,421.115z"/>
	<path fill="#006769" d="M439.454,110.424c38.899-0.12,106.625,32.83,142.081,49.694c42.279,20.11,56.133,103.167,68.918,144.004
		c3.631,11.597,24.663,56.344,14.034,66.737c-6.11,5.974-34.833,36.572-45.198,26.373c-41.192-40.535-79.938-81.691-116.964-126.167
		c-23.276-27.959-69.126-69.249-105.965-59.241c-49.367,13.411-30.78,90.133-101.458,67.25
		c-24.616-7.97,15.624-85.594,17.244-102.869C315.417,141.32,408.769,109.899,439.454,110.424
		C451.102,110.388,426.85,110.209,439.454,110.424z"/>
	<path fill="#006769" d="M90.513,91.212c12.554-34.028,76.99,3.808,95.846,10.643c24.24,8.786-4.921,75.847-10.732,91.86
		c-13.019,35.873-57.192,178.36-98.271,161.104c-18.868-7.926-77.019-19.179-65.304-50.933c7.556-20.48,15.111-40.959,22.667-61.439
		C53.317,192.035,71.915,141.623,90.513,91.212z"/>
	<path fill="#006769" d="M671.497,154.956c35.569,55.166,70.505,109.847,99.261,168.872c14.139,29.023,22.354,52.108-13.092,65.309
		c-21.039,7.835-72.583,31.003-86.834,0.486c-5.297-11.344,12.234-14.863,12.239-26.566c0.006-16.175-5.354-31.974-9.75-47.36
		c-5.973-20.903-13.071-41.612-20.239-62.13c-9.884-29.465-21.403-68.127-40.804-93.033
		C588.943,130.579,653.89,127.647,671.497,154.956z"/>
	<path fill="#006769" d="M335.984,476.246c29.842,4.312,18.012,39.553,39.745,56.911c-16.961,7.5-88.893,25.924-72.144-20.643
		c-25.173,4.868-50.715-7.208-49.074-35.672c-36.305,12.637-61.725-1.505-58.293-44.166c-35.746,14.828-59.869-74.637-19.122-53.029
		c28.862,15.306,26.978,27.747,58.839,22.955c24.295-3.654,59.013,13.562,45.399,44.098
		C312.511,420.326,337.844,436.677,335.984,476.246C337.673,476.49,336.275,470.062,335.984,476.246z"/>
</g>
</svg>
