<?xml version="1.0" encoding="utf-8"?>
<!-- Generator: Adobe Illustrator 17.0.1, SVG Export Plug-In . SVG Version: 6.00 Build 0)  -->
<!DOCTYPE svg PUBLIC "-//W3C//DTD SVG 1.1//EN" "http://www.w3.org/Graphics/SVG/1.1/DTD/svg11.dtd">
<svg version="1.1" id="Layer_1" xmlns="http://www.w3.org/2000/svg" xmlns:xlink="http://www.w3.org/1999/xlink" x="0px" y="0px"
	 width="688px" height="155px" viewBox="-30.5 323.5 688 155" enable-background="new -30.5 323.5 688 155" xml:space="preserve">
<path fill="#070707" d="M641.5,458.5c0,6.627-5.373,12-12,12h-641c-6.627,0-12-5.373-12-12v-118c0-6.627,5.373-12,12-12h641
	c6.627,0,12,5.373,12,12V458.5z"/>
<g>
	<path fill="#86BC25" d="M577.701,436.352c0-9.079,7.398-16.141,16.141-16.141c9.079,0,16.141,7.398,16.141,16.141
		s-7.398,16.141-16.141,16.141C585.099,452.492,577.701,445.431,577.701,436.352"/>
	<path fill="#FFFFFF" d="M92.809,392.974c0,18.831-4.708,32.954-14.796,43.042c-10.088,10.088-24.211,15.132-42.369,15.132H0
		V339.171h37.662c17.822,0,31.273,4.371,40.688,13.787C88.101,362.037,92.809,375.488,92.809,392.974 M61.873,393.982
		c0-10.424-2.018-17.822-6.053-22.866c-3.699-4.708-10.088-7.398-18.158-7.398h-8.07v62.545h6.725c9.079,0,15.468-2.69,19.84-8.07
		C59.855,412.813,61.873,404.743,61.873,393.982"/>
	<rect x="190.662" y="338.835" fill="#FFFFFF" width="27.91" height="112.312"/>
	<path fill="#FFFFFF" d="M310.708,409.114c0,13.451-3.363,24.211-10.76,31.945s-17.486,11.433-30.264,11.433
		c-12.442,0-22.193-3.699-29.591-11.769c-7.398-8.07-11.097-18.495-11.097-31.609c0-13.451,3.363-24.211,10.76-31.609
		c7.398-7.734,17.486-11.433,30.264-11.433c8.07,0,15.132,1.681,21.185,5.044c6.389,3.363,10.76,8.407,14.123,14.796
		C309.363,392.974,310.708,400.371,310.708,409.114 M257.914,409.114c0,7.398,1.009,12.442,2.69,16.141
		c1.681,3.699,4.708,5.38,9.415,5.38s7.398-1.681,9.415-5.38c1.681-3.699,2.69-9.415,2.69-16.141c0-7.398-1.009-12.442-2.69-16.141
		c-1.681-3.363-4.708-5.38-9.415-5.38c-4.035,0-7.398,1.681-9.415,5.38C258.923,396.673,257.914,401.716,257.914,409.114"/>
	<rect x="322.141" y="367.418" fill="#FFFFFF" width="27.91" height="83.393"/>
	<rect x="322.141" y="338.835" fill="#FFFFFF" width="27.91" height="18.831"/>
	<path fill="#FFFFFF" d="M406.879,429.626c3.699,0,8.407-1.009,13.451-2.69v21.185c-3.699,1.681-7.398,2.69-10.76,3.363
		c-3.363,0.673-7.398,1.009-12.105,1.009c-9.415,0-16.141-2.354-20.512-7.398c-4.035-4.708-6.389-12.105-6.389-21.857v-34.299
		h-9.752v-21.521h9.752v-20.848l28.246-4.708v26.229h18.158v21.185h-18.158v32.281C399.481,427.273,401.835,429.626,406.879,429.626
		"/>
	<path fill="#FFFFFF" d="M472.114,429.626c3.699,0,8.407-1.009,13.451-2.69v21.185c-3.699,1.681-7.398,2.69-10.76,3.363
		c-3.363,0.673-7.398,1.009-12.106,1.009c-9.415,0-16.141-2.354-20.512-7.398c-4.035-4.708-6.389-12.105-6.389-21.857v-34.299
		h-9.752v-21.521h9.752v-21.185l28.246-4.371v26.229h18.158v21.185h-18.158v32.281C464.38,427.273,467.07,429.626,472.114,429.626"
		/>
	<path fill="#FFFFFF" d="M560.888,375.824c-6.725-6.725-16.141-9.752-28.246-9.752c-12.778,0-22.866,3.699-29.927,11.433
		c-7.062,7.734-10.424,18.495-10.424,32.618c0,13.451,3.699,24.211,11.097,31.609c7.734,7.398,18.158,11.097,31.609,11.097
		c6.725,0,12.106-0.336,16.813-1.345c4.371-1.009,9.415-2.354,13.451-4.708l-4.035-18.831c-3.026,1.345-6.389,2.354-9.079,3.026
		c-4.035,1.009-8.743,1.345-13.451,1.345c-5.38,0-9.752-1.345-12.778-3.699c-3.026-2.69-4.708-6.389-4.708-11.097h50.103v-13.114
		C570.976,391.965,567.277,382.549,560.888,375.824 M521.209,399.026c0.336-4.371,1.681-8.07,3.699-10.088
		c2.018-2.018,4.708-3.026,8.407-3.026c3.363,0,6.725,1.009,8.743,3.363c2.018,2.354,3.026,5.38,3.363,9.752H521.209z"/>
	<path fill="#FFFFFF" d="M169.813,375.824c-7.062-6.725-16.141-9.752-28.246-9.752c-12.778,0-22.866,3.699-29.927,11.433
		c-7.062,7.734-10.424,18.495-10.424,32.618c0,13.451,3.699,24.211,11.097,31.609c7.734,7.398,18.158,11.097,31.609,11.097
		c6.725,0,12.105-0.336,16.813-1.345c4.371-1.009,9.415-2.354,13.451-4.708l-4.035-19.167c-3.026,1.345-6.389,2.354-9.079,3.026
		c-4.035,1.009-8.743,1.345-13.451,1.345c-5.38,0-9.752-1.345-12.778-3.699c-3.026-2.69-4.708-6.389-4.708-11.097h50.103v-12.778
		C179.901,391.965,176.202,382.549,169.813,375.824 M129.798,399.026c0.336-4.371,1.681-8.07,3.699-10.088s4.708-3.026,8.407-3.026
		c3.699,0,6.725,1.009,8.743,3.363c2.018,2.354,3.026,5.38,3.363,9.752H129.798z"/>
</g>
</svg>
