<?xml version="1.0" encoding="UTF-8"?>
<svg id="Layer_1" data-name="Layer 1" xmlns="http://www.w3.org/2000/svg" viewBox="0 0 1405.88 210.86">
  <defs>
    <style>
      .cls-1 {
        fill: #f7b22b;
      }

      .cls-1, .cls-2, .cls-3, .cls-4 {
        stroke-width: 0px;
      }

      .cls-2 {
        fill: #5dafc4;
      }

      .cls-3 {
        fill: #89898a;
      }

      .cls-4 {
        fill: #fff;
      }
    </style>
  </defs>
  <g>
    <path class="cls-2" d="m158.28,11.63c6.18,0,11.49.73,15.92,2.2,4.43,1.47,8.09,3.48,10.96,6.05,2.87,2.57,4.99,5.6,6.35,9.09,1.36,3.49,2.05,7.27,2.05,11.32,0,4.37-.7,8.39-2.11,12.04-1.4,3.65-3.55,6.78-6.44,9.39-2.89,2.61-6.55,4.65-10.99,6.11-4.43,1.47-9.68,2.2-15.74,2.2h-10.6v29.32h-20.35V11.63h30.94Zm0,43.05c5.3,0,9.11-1.26,11.44-3.79,2.33-2.53,3.49-6.06,3.49-10.6,0-2.01-.3-3.83-.9-5.48-.6-1.65-1.52-3.06-2.74-4.24-1.22-1.18-2.77-2.1-4.64-2.74-1.87-.64-4.08-.96-6.65-.96h-10.6v27.81h10.6Z"/>
    <path class="cls-2" d="m280.49,11.63v87.72h-20.47v-37.09h-35.64v37.09h-20.47V11.63h20.47v36.66h35.64V11.63h20.47Z"/>
    <path class="cls-2" d="m376.15,99.34h-15.77c-1.77,0-3.19-.41-4.27-1.23-1.08-.82-1.91-1.88-2.47-3.16l-5.18-15.29h-33.35l-5.18,15.29c-.44,1.12-1.23,2.14-2.38,3.04-1.14.9-2.56,1.35-4.24,1.35h-15.89l33.96-87.72h20.83l33.96,87.72Zm-32.33-33.53l-8.13-24.02c-.6-1.52-1.24-3.32-1.93-5.39-.68-2.07-1.37-4.3-2.05-6.71-.6,2.45-1.25,4.72-1.93,6.8-.68,2.09-1.32,3.89-1.93,5.42l-8.07,23.9h24.02Z"/>
    <path class="cls-2" d="m454.84,99.34h-18.42c-3.41,0-5.86-1.28-7.34-3.85l-14.57-25.47c-.68-1.08-1.45-1.88-2.29-2.38-.84-.5-2.05-.75-3.61-.75h-5.18v32.45h-20.35V11.63h28.54c6.34,0,11.75.65,16.22,1.96,4.48,1.31,8.13,3.12,10.96,5.45,2.83,2.33,4.89,5.08,6.17,8.25,1.28,3.17,1.93,6.62,1.93,10.35,0,2.85-.38,5.54-1.14,8.07-.76,2.53-1.89,4.87-3.37,7.01-1.49,2.15-3.32,4.06-5.51,5.75-2.19,1.69-4.71,3.07-7.56,4.15,1.32.68,2.57,1.53,3.73,2.56,1.16,1.02,2.21,2.24,3.13,3.64l18.66,30.52Zm-43.23-46.48c2.77,0,5.13-.35,7.07-1.05,1.95-.7,3.54-1.68,4.79-2.92,1.24-1.24,2.15-2.7,2.71-4.37.56-1.66.84-3.46.84-5.39,0-3.85-1.26-6.86-3.76-9.03-2.51-2.17-6.39-3.25-11.65-3.25h-8.19v26.01h8.19Z"/>
    <path class="cls-2" d="m560.86,11.63v87.72h-17.94v-50.45c0-1.16.03-2.43.09-3.79.06-1.36.17-2.75.33-4.15l-23.3,45.09c-.72,1.41-1.7,2.47-2.92,3.19-1.22.72-2.62,1.08-4.18,1.08h-2.77c-1.57,0-2.96-.36-4.18-1.08-1.22-.72-2.2-1.79-2.92-3.19l-23.3-45.21c.12,1.44.22,2.86.3,4.24.08,1.38.12,2.66.12,3.82v50.45h-17.94V11.63h15.53c.88,0,1.66.02,2.32.06.66.04,1.25.16,1.78.36.52.2.99.51,1.41.93.42.42.83,1.01,1.23,1.78l22.58,44.49c.8,1.53,1.58,3.11,2.32,4.76.74,1.65,1.45,3.33,2.14,5.06.68-1.77,1.39-3.49,2.14-5.18.74-1.69,1.54-3.29,2.38-4.82l22.52-44.31c.4-.76.81-1.35,1.23-1.78.42-.42.89-.73,1.41-.93s1.11-.32,1.78-.36c.66-.04,1.43-.06,2.32-.06h15.53Z"/>
    <path class="cls-2" d="m598.3,99.34h-20.47V11.63h20.47v87.72Z"/>
    <path class="cls-3" d="m734.78,11.63l-27.09,87.72h-18.42l-16.5-54.36c-.32-.84-.62-1.78-.9-2.8-.28-1.02-.56-2.1-.84-3.22-.28,1.12-.56,2.2-.84,3.22-.28,1.02-.58,1.96-.9,2.8l-16.74,54.36h-18.42l-27.09-87.72h17.1c1.77,0,3.24.4,4.42,1.2,1.18.8,1.96,1.87,2.32,3.19l12.04,45.76c.36,1.45.72,3.02,1.08,4.73.36,1.71.72,3.48,1.08,5.33.72-3.77,1.6-7.12,2.65-10.05l14.21-45.76c.36-1.12,1.13-2.14,2.32-3.04,1.18-.9,2.62-1.35,4.3-1.35h6.02c1.77,0,3.19.41,4.27,1.23,1.08.82,1.91,1.88,2.47,3.16l14.09,45.76c1.04,2.81,1.93,6,2.65,9.57.32-1.81.65-3.5.99-5.09.34-1.58.69-3.08,1.05-4.49l12.04-45.76c.32-1.16,1.08-2.19,2.29-3.07,1.2-.88,2.65-1.32,4.33-1.32h16.01Z"/>
    <path class="cls-3" d="m763.98,27.28v20.47h27.57v15.05h-27.57v20.89h36v15.65h-56.47V11.63h56.47v15.65h-36Z"/>
    <path class="cls-3" d="m844.78,11.63c6.06,0,11.22.56,15.47,1.69,4.25,1.12,7.73,2.71,10.42,4.76,2.69,2.05,4.65,4.54,5.87,7.46,1.22,2.93,1.84,6.2,1.84,9.81,0,1.97-.28,3.86-.84,5.69-.56,1.83-1.45,3.53-2.65,5.12-1.2,1.59-2.75,3.04-4.64,4.36-1.89,1.32-4.15,2.47-6.8,3.43,5.78,1.41,10.05,3.67,12.82,6.8,2.77,3.13,4.15,7.19,4.15,12.16,0,3.73-.72,7.2-2.17,10.42-1.45,3.21-3.56,6.01-6.35,8.4-2.79,2.39-6.23,4.25-10.32,5.6-4.09,1.34-8.77,2.02-14.03,2.02h-35.04V11.63h32.27Zm-11.92,15.23v21.67h10.6c2.25,0,4.28-.16,6.08-.48,1.81-.32,3.34-.88,4.61-1.69,1.26-.8,2.23-1.91,2.89-3.31.66-1.4.99-3.17.99-5.3s-.26-3.82-.78-5.21c-.52-1.38-1.32-2.5-2.41-3.34-1.08-.84-2.46-1.45-4.12-1.81s-3.64-.54-5.93-.54h-11.92Zm14.33,57.13c2.69,0,4.89-.34,6.59-1.02,1.71-.68,3.04-1.57,4-2.65.96-1.08,1.63-2.31,1.99-3.67.36-1.36.54-2.75.54-4.15,0-1.6-.21-3.05-.63-4.34-.42-1.28-1.14-2.37-2.17-3.25-1.02-.88-2.38-1.57-4.06-2.05-1.69-.48-3.81-.72-6.38-.72h-14.21v21.85h14.33Z"/>
    <path class="cls-3" d="m888.42,89.89c0-1.44.27-2.79.81-4.03.54-1.24,1.28-2.33,2.23-3.25.94-.92,2.06-1.66,3.34-2.2,1.28-.54,2.69-.81,4.21-.81s2.87.27,4.15.81c1.28.54,2.41,1.27,3.37,2.2.96.92,1.72,2.01,2.26,3.25.54,1.24.81,2.59.81,4.03s-.27,2.8-.81,4.06c-.54,1.26-1.29,2.36-2.26,3.28-.96.92-2.09,1.65-3.37,2.17-1.28.52-2.67.78-4.15.78s-2.93-.26-4.21-.78c-1.28-.52-2.4-1.24-3.34-2.17-.94-.92-1.69-2.02-2.23-3.28-.54-1.26-.81-2.62-.81-4.06Z"/>
    <path class="cls-2" d="m958.2,67.56c0,4.9-.61,9.35-1.84,13.37-1.22,4.01-3.07,7.46-5.54,10.32-2.47,2.87-5.57,5.1-9.3,6.68-3.73,1.59-8.13,2.38-13.19,2.38-2.29,0-4.55-.12-6.77-.36-2.23-.24-4.55-.64-6.95-1.2l1.08-11.86c.12-1.04.54-1.89,1.26-2.53.72-.64,1.75-.96,3.07-.96.68,0,1.52.11,2.53.33,1,.22,2.21.33,3.61.33,1.97,0,3.68-.27,5.15-.81,1.46-.54,2.68-1.44,3.64-2.71s1.69-2.92,2.17-4.97c.48-2.05.72-4.58.72-7.59V11.63h20.35v55.93Z"/>
    <path class="cls-2" d="m1060.43,55.46c0,6.34-1.09,12.24-3.28,17.7-2.19,5.46-5.27,10.21-9.24,14.24-3.97,4.03-8.76,7.19-14.36,9.48s-11.81,3.43-18.63,3.43-13.04-1.14-18.66-3.43c-5.62-2.29-10.43-5.45-14.42-9.48-3.99-4.03-7.08-8.78-9.27-14.24-2.19-5.46-3.28-11.36-3.28-17.7s1.09-12.24,3.28-17.7c2.19-5.46,5.28-10.19,9.27-14.21,3.99-4.01,8.8-7.16,14.42-9.45,5.62-2.29,11.84-3.43,18.66-3.43s13.03,1.15,18.63,3.46c5.6,2.31,10.39,5.47,14.36,9.48,3.97,4.01,7.05,8.75,9.24,14.21,2.19,5.46,3.28,11.34,3.28,17.64Zm-20.83,0c0-4.34-.56-8.24-1.69-11.71-1.12-3.47-2.74-6.41-4.85-8.82-2.11-2.41-4.69-4.25-7.74-5.54-3.05-1.28-6.52-1.93-10.42-1.93s-7.44.64-10.51,1.93c-3.07,1.29-5.66,3.13-7.77,5.54-2.11,2.41-3.72,5.35-4.85,8.82-1.12,3.47-1.69,7.38-1.69,11.71s.56,8.3,1.69,11.77c1.12,3.47,2.74,6.41,4.85,8.82,2.11,2.41,4.7,4.24,7.77,5.51,3.07,1.26,6.57,1.9,10.51,1.9s7.37-.63,10.42-1.9c3.05-1.26,5.63-3.1,7.74-5.51,2.11-2.41,3.72-5.35,4.85-8.82,1.12-3.47,1.69-7.39,1.69-11.77Z"/>
    <path class="cls-2" d="m1104.67,11.63c6.06,0,11.22.56,15.47,1.69,4.25,1.12,7.73,2.71,10.42,4.76,2.69,2.05,4.65,4.54,5.87,7.46,1.22,2.93,1.84,6.2,1.84,9.81,0,1.97-.28,3.86-.84,5.69-.56,1.83-1.45,3.53-2.65,5.12-1.2,1.59-2.75,3.04-4.64,4.36-1.89,1.32-4.15,2.47-6.8,3.43,5.78,1.41,10.05,3.67,12.82,6.8,2.77,3.13,4.15,7.19,4.15,12.16,0,3.73-.72,7.2-2.17,10.42-1.45,3.21-3.56,6.01-6.35,8.4-2.79,2.39-6.23,4.25-10.32,5.6-4.09,1.34-8.77,2.02-14.03,2.02h-35.04V11.63h32.27Zm-11.92,15.23v21.67h10.6c2.25,0,4.28-.16,6.08-.48,1.81-.32,3.34-.88,4.61-1.69,1.26-.8,2.23-1.91,2.89-3.31.66-1.4.99-3.17.99-5.3s-.26-3.82-.78-5.21c-.52-1.38-1.32-2.5-2.41-3.34-1.08-.84-2.46-1.45-4.12-1.81s-3.64-.54-5.93-.54h-11.92Zm14.33,57.13c2.69,0,4.89-.34,6.59-1.02,1.71-.68,3.04-1.57,4-2.65.96-1.08,1.63-2.31,1.99-3.67.36-1.36.54-2.75.54-4.15,0-1.6-.21-3.05-.63-4.34-.42-1.28-1.14-2.37-2.17-3.25-1.02-.88-2.38-1.57-4.06-2.05-1.69-.48-3.81-.72-6.38-.72h-14.21v21.85h14.33Z"/>
    <path class="cls-2" d="m1201.48,29.45c-.6.96-1.23,1.69-1.9,2.17-.66.48-1.52.72-2.56.72-.92,0-1.92-.29-2.98-.87-1.06-.58-2.27-1.23-3.61-1.96s-2.88-1.37-4.61-1.96c-1.73-.58-3.69-.87-5.9-.87-3.81,0-6.65.81-8.52,2.44-1.87,1.63-2.8,3.82-2.8,6.59,0,1.77.56,3.23,1.69,4.4,1.12,1.16,2.6,2.17,4.42,3.01,1.83.84,3.91,1.62,6.26,2.32,2.35.7,4.75,1.49,7.19,2.35,2.45.86,4.85,1.88,7.19,3.04,2.35,1.16,4.43,2.65,6.26,4.46,1.83,1.81,3.3,4,4.43,6.59,1.12,2.59,1.69,5.71,1.69,9.36,0,4.05-.7,7.85-2.11,11.38-1.41,3.53-3.44,6.61-6.11,9.24-2.67,2.63-5.96,4.7-9.87,6.2-3.91,1.51-8.36,2.26-13.33,2.26-2.73,0-5.51-.28-8.34-.84-2.83-.56-5.57-1.35-8.22-2.38-2.65-1.02-5.14-2.24-7.47-3.64-2.33-1.4-4.36-2.97-6.08-4.7l6.02-9.51c.48-.68,1.11-1.25,1.9-1.72.78-.46,1.64-.69,2.56-.69,1.2,0,2.42.38,3.64,1.14,1.22.76,2.61,1.61,4.15,2.53,1.54.92,3.32,1.77,5.33,2.53,2.01.76,4.37,1.14,7.1,1.14,3.69,0,6.56-.81,8.61-2.44,2.05-1.63,3.07-4.2,3.07-7.74,0-2.05-.56-3.71-1.69-5-1.12-1.28-2.6-2.35-4.43-3.19-1.83-.84-3.9-1.58-6.23-2.23-2.33-.64-4.72-1.35-7.16-2.14s-4.84-1.75-7.16-2.89c-2.33-1.14-4.41-2.65-6.23-4.51-1.83-1.87-3.3-4.19-4.42-6.98-1.12-2.79-1.69-6.23-1.69-10.32,0-3.29.66-6.5,1.99-9.63,1.32-3.13,3.27-5.92,5.84-8.37,2.57-2.45,5.72-4.4,9.45-5.87,3.73-1.46,8.01-2.2,12.82-2.2,2.69,0,5.31.21,7.86.63s4.97,1.04,7.26,1.87c2.29.82,4.42,1.81,6.41,2.95,1.99,1.14,3.76,2.44,5.33,3.88l-5.06,9.45Z"/>
  </g>
  <g>
    <circle class="cls-1" cx="47" cy="55.37" r="43.74"/>
    <g>
      <g>
        <rect class="cls-2" x="40.69" y="34.68" width="4.65" height="4.89" rx=".31" ry=".31"/>
        <rect class="cls-2" x="40.69" y="42.33" width="4.65" height="4.89" rx=".31" ry=".31"/>
        <rect class="cls-2" x="40.69" y="50.35" width="4.65" height="4.89" rx=".31" ry=".31"/>
      </g>
      <rect class="cls-2" x="34.06" y="42.33" width="4.65" height="4.89" rx=".31" ry=".31"/>
      <rect class="cls-2" x="34.06" y="50.35" width="4.65" height="4.89" rx=".31" ry=".31"/>
      <rect class="cls-2" x="26.46" y="50.35" width="4.65" height="4.89" rx=".31" ry=".31"/>
      <rect class="cls-2" x="18.99" y="50.35" width="4.65" height="4.89" rx=".31" ry=".31"/>
      <rect class="cls-2" x="48.65" y="71.17" width="4.65" height="4.89" rx=".31" ry=".31" transform="translate(101.96 147.23) rotate(180)"/>
      <rect class="cls-2" x="48.65" y="63.8" width="4.65" height="4.89" rx=".31" ry=".31" transform="translate(101.96 132.49) rotate(180)"/>
      <rect class="cls-2" x="48.65" y="55.78" width="4.65" height="4.89" rx=".31" ry=".31" transform="translate(101.96 116.45) rotate(180)"/>
      <rect class="cls-2" x="55.29" y="63.8" width="4.65" height="4.89" rx=".31" ry=".31" transform="translate(115.23 132.49) rotate(180)"/>
      <rect class="cls-2" x="55.29" y="55.78" width="4.65" height="4.89" rx=".31" ry=".31" transform="translate(115.23 116.45) rotate(180)"/>
      <rect class="cls-2" x="62.89" y="55.78" width="4.65" height="4.89" rx=".31" ry=".31" transform="translate(130.44 116.45) rotate(180)"/>
      <rect class="cls-2" x="70.36" y="55.78" width="4.65" height="4.89" rx=".31" ry=".31" transform="translate(145.36 116.45) rotate(180)"/>
    </g>
  </g>
  <g>
    <path class="cls-3" d="m491.51,160.83h18.03v21.41c-2.6,1.9-5.37,3.28-8.3,4.14s-6,1.28-9.2,1.28c-4.18,0-7.98-.65-11.4-1.97-3.42-1.31-6.35-3.12-8.79-5.43-2.44-2.31-4.32-5.05-5.64-8.21-1.32-3.17-1.98-6.61-1.98-10.32s.63-7.26,1.88-10.43c1.25-3.17,3.05-5.9,5.38-8.2,2.33-2.3,5.15-4.08,8.46-5.36,3.31-1.28,7-1.91,11.09-1.91,2.11,0,4.09.18,5.95.52,1.86.35,3.57.82,5.13,1.43,1.57.6,3,1.32,4.3,2.16,1.3.84,2.46,1.74,3.48,2.72l-3.41,5.18c-.54.81-1.22,1.31-2.07,1.5-.85.19-1.76-.02-2.73-.63-.93-.56-1.8-1.04-2.63-1.44-.82-.4-1.66-.74-2.52-.99-.86-.26-1.76-.44-2.72-.56-.95-.12-2.02-.18-3.2-.18-2.21,0-4.19.39-5.95,1.17-1.76.78-3.26,1.88-4.5,3.29-1.24,1.42-2.2,3.12-2.87,5.1-.67,1.99-1.01,4.2-1.01,6.64,0,2.69.37,5.08,1.11,7.17s1.79,3.85,3.15,5.29c1.36,1.44,2.98,2.54,4.87,3.29,1.89.76,3.98,1.13,6.28,1.13,1.41,0,2.7-.14,3.84-.42,1.15-.28,2.27-.65,3.36-1.12v-7.69h-5.01c-.75,0-1.33-.2-1.74-.6s-.63-.89-.63-1.5v-6.47Z"/>
    <path class="cls-3" d="m526.98,135v52.1h-10.79v-52.1h10.79Z"/>
    <path class="cls-3" d="m550.93,150.46c2.74,0,5.23.43,7.48,1.29,2.25.86,4.18,2.09,5.8,3.69,1.61,1.6,2.87,3.55,3.76,5.83.89,2.28,1.34,4.85,1.34,7.71s-.45,5.47-1.34,7.78c-.89,2.31-2.15,4.27-3.76,5.88-1.61,1.62-3.54,2.86-5.8,3.73-2.25.87-4.74,1.3-7.48,1.3s-5.28-.43-7.54-1.3-4.21-2.11-5.85-3.73c-1.64-1.61-2.9-3.57-3.79-5.88-.9-2.31-1.34-4.91-1.34-7.78s.44-5.43,1.34-7.71c.89-2.29,2.16-4.23,3.79-5.83,1.64-1.6,3.58-2.83,5.85-3.69s4.77-1.29,7.54-1.29Zm0,29.2c2.48,0,4.31-.87,5.48-2.63,1.17-1.75,1.76-4.42,1.76-7.99s-.59-6.23-1.76-7.97c-1.17-1.74-3-2.61-5.48-2.61s-4.42.87-5.6,2.61-1.78,4.4-1.78,7.97.59,6.23,1.78,7.99,3.05,2.63,5.6,2.63Z"/>
    <path class="cls-3" d="m585.52,154.84c1.39-1.33,2.92-2.39,4.58-3.19,1.66-.8,3.51-1.2,5.55-1.2s3.9.42,5.57,1.25c1.67.83,3.1,2.02,4.28,3.57,1.18,1.54,2.1,3.41,2.73,5.59.64,2.18.96,4.62.96,7.31,0,2.93-.37,5.58-1.11,7.97-.75,2.39-1.8,4.44-3.15,6.15s-2.98,3.03-4.86,3.97-3.96,1.41-6.23,1.41c-1.09,0-2.06-.11-2.92-.31s-1.65-.5-2.37-.89c-.72-.38-1.38-.84-1.97-1.37s-1.17-1.12-1.72-1.74l-.38,1.81c-.19.75-.49,1.25-.91,1.54-.42.28-.97.41-1.67.41h-7.17v-52.1h10.79v19.84Zm0,22.45c.81.88,1.69,1.5,2.64,1.88.95.37,1.92.56,2.89.56s1.96-.19,2.82-.58c.86-.38,1.59-1.01,2.21-1.88s1.1-2.02,1.44-3.45.52-3.18.52-5.28c0-1.81-.13-3.35-.4-4.61s-.66-2.29-1.18-3.1c-.52-.8-1.17-1.38-1.95-1.74-.78-.36-1.66-.54-2.66-.54-1.32,0-2.47.29-3.45.87-.97.58-1.94,1.43-2.89,2.54v15.32Z"/>
    <path class="cls-3" d="m613.93,156.02c2.18-1.92,4.6-3.36,7.26-4.3s5.51-1.41,8.55-1.41c2.18,0,4.15.35,5.9,1.06s3.24,1.69,4.45,2.96c1.22,1.26,2.15,2.77,2.8,4.5.65,1.74.97,3.65.97,5.71v22.56h-4.94c-1.02,0-1.79-.14-2.32-.41-.52-.28-.96-.86-1.3-1.74l-.77-1.99c-.91.76-1.77,1.44-2.61,2.02-.84.58-1.7,1.08-2.59,1.48-.89.41-1.85.71-2.85.91-1.01.19-2.13.29-3.36.29-1.65,0-3.15-.21-4.49-.65-1.35-.43-2.49-1.06-3.43-1.89-.94-.84-1.66-1.87-2.17-3.12-.51-1.24-.76-2.67-.76-4.3,0-1.3.32-2.61.97-3.95.65-1.33,1.77-2.56,3.37-3.65,1.6-1.1,3.76-2.03,6.48-2.77,2.71-.75,6.14-1.16,10.27-1.25v-1.54c0-2.11-.43-3.63-1.3-4.57s-2.11-1.41-3.71-1.41c-1.28,0-2.32.14-3.13.42-.81.28-1.54.59-2.18.94-.64.34-1.26.66-1.86.94-.6.28-1.32.41-2.16.41-.74,0-1.37-.18-1.88-.56-.51-.37-.93-.81-1.25-1.32l-1.95-3.38Zm19.42,16.4c-2.16.09-3.93.28-5.32.56-1.39.28-2.5.63-3.31,1.04-.81.42-1.38.9-1.69,1.43s-.47,1.12-.47,1.74c0,1.23.34,2.09,1.01,2.59s1.66.75,2.96.75c1.39,0,2.61-.24,3.65-.73,1.05-.49,2.1-1.28,3.17-2.37v-5.01Z"/>
    <path class="cls-3" d="m661.54,135v52.1h-10.79v-52.1h10.79Z"/>
    <path class="cls-3" d="m716.74,177.71v9.4h-30.56v-50.71h11.77v41.31h18.79Z"/>
    <path class="cls-3" d="m733.62,141.13c0,.86-.18,1.67-.52,2.42-.35.75-.82,1.42-1.43,1.99-.6.57-1.31,1.02-2.11,1.36-.8.34-1.65.5-2.56.5s-1.71-.17-2.47-.5-1.44-.79-2.04-1.36c-.59-.57-1.06-1.23-1.39-1.99-.34-.75-.5-1.56-.5-2.42s.17-1.7.5-2.47c.34-.76.8-1.44,1.39-2.02s1.27-1.03,2.04-1.36c.76-.33,1.59-.49,2.47-.49s1.76.16,2.56.49c.8.32,1.5.78,2.11,1.36.6.58,1.08,1.25,1.43,2.02.35.77.52,1.59.52,2.47Zm-1.12,9.89v36.09h-10.79v-36.09h10.79Z"/>
    <path class="cls-3" d="m742.74,187.1v-28.68l-2.37-.49c-.81-.19-1.47-.48-1.96-.87-.5-.39-.75-.97-.75-1.74v-4.24h5.08v-2.06c0-2.06.33-3.93.99-5.6.66-1.67,1.61-3.1,2.86-4.28,1.24-1.18,2.75-2.1,4.54-2.75,1.79-.65,3.82-.97,6.09-.97.88,0,1.69.05,2.43.16s1.52.27,2.33.5l-.21,5.26c-.02.37-.12.68-.28.92s-.38.44-.64.59-.55.26-.85.33c-.3.07-.6.1-.91.1-.95,0-1.8.09-2.54.28s-1.37.52-1.86.99c-.5.47-.87,1.1-1.13,1.88-.25.78-.38,1.76-.38,2.94v1.71h8.46v7.38h-8.11v28.65h-10.79Z"/>
    <path class="cls-3" d="m773.68,170.99c.35,3.02,1.27,5.21,2.75,6.56,1.48,1.36,3.4,2.04,5.74,2.04,1.25,0,2.33-.15,3.24-.45s1.71-.64,2.42-1.01,1.36-.71,1.95-1.01,1.21-.45,1.86-.45c.86,0,1.51.31,1.95.94l3.13,3.86c-1.12,1.28-2.32,2.32-3.6,3.11-1.29.8-2.61,1.43-3.97,1.88-1.36.46-2.72.77-4.07.94-1.36.18-2.65.26-3.88.26-2.53,0-4.9-.41-7.12-1.23-2.21-.82-4.15-2.05-5.81-3.67-1.66-1.62-2.97-3.65-3.93-6.06-.96-2.41-1.44-5.22-1.44-8.42,0-2.41.41-4.7,1.24-6.85.82-2.16,2-4.05,3.55-5.68,1.54-1.62,3.41-2.91,5.6-3.86,2.19-.95,4.67-1.43,7.43-1.43,2.39,0,4.58.37,6.56,1.11s3.69,1.82,5.12,3.24c1.43,1.42,2.54,3.15,3.34,5.21.8,2.05,1.2,4.38,1.2,6.97,0,.81-.03,1.48-.1,1.99s-.2.91-.38,1.22c-.19.31-.44.51-.75.63-.31.12-.71.18-1.2.18h-20.82Zm13.58-6.27c0-.86-.11-1.69-.33-2.51-.22-.81-.58-1.54-1.08-2.17-.5-.64-1.16-1.15-1.97-1.55-.81-.39-1.8-.6-2.96-.6-2.04,0-3.64.59-4.8,1.76-1.16,1.17-1.93,2.86-2.3,5.06h13.44Z"/>
    <path class="cls-3" d="m847.67,146.7c-.35.56-.71.97-1.1,1.25s-.87.42-1.48.42c-.53,0-1.11-.17-1.72-.5s-1.31-.71-2.09-1.13c-.78-.42-1.66-.8-2.66-1.13-1-.34-2.13-.5-3.41-.5-2.21,0-3.85.47-4.92,1.41-1.08.94-1.62,2.21-1.62,3.81,0,1.02.33,1.87.97,2.54.65.67,1.5,1.25,2.56,1.74,1.06.48,2.26.94,3.62,1.34,1.36.4,2.74.86,4.16,1.35,1.41.5,2.8,1.08,4.16,1.76,1.36.67,2.57,1.53,3.62,2.58,1.06,1.04,1.91,2.31,2.56,3.81.65,1.5.97,3.3.97,5.41,0,2.34-.41,4.54-1.22,6.58-.81,2.04-1.99,3.82-3.53,5.34-1.54,1.52-3.45,2.71-5.71,3.58s-4.83,1.3-7.71,1.3c-1.58,0-3.19-.16-4.82-.49-1.64-.32-3.22-.78-4.75-1.37-1.53-.6-2.97-1.29-4.32-2.11-1.35-.81-2.52-1.72-3.51-2.71l3.48-5.5c.28-.39.64-.73,1.1-1,.45-.26.95-.39,1.48-.39.7,0,1.4.22,2.11.66.71.44,1.51.93,2.4,1.46.89.54,1.92,1.02,3.08,1.47,1.16.44,2.53.66,4.11.66,2.14,0,3.79-.47,4.98-1.41s1.78-2.43,1.78-4.47c0-1.18-.33-2.15-.98-2.89-.65-.74-1.5-1.35-2.56-1.84s-2.26-.91-3.6-1.29c-1.35-.37-2.73-.78-4.14-1.23s-2.8-1.01-4.14-1.67c-1.35-.66-2.55-1.54-3.6-2.61s-1.91-2.42-2.56-4.03c-.65-1.62-.97-3.6-.97-5.97,0-1.9.38-3.76,1.15-5.57.76-1.81,1.89-3.42,3.37-4.84s3.31-2.55,5.47-3.39,4.63-1.27,7.41-1.27c1.55,0,3.07.12,4.54.37s2.87.6,4.19,1.08c1.32.48,2.56,1.05,3.71,1.71,1.15.66,2.18,1.41,3.08,2.24l-2.92,5.47Z"/>
    <path class="cls-3" d="m883.49,159.57c-.32.39-.64.71-.94.94-.3.23-.73.35-1.29.35s-1.02-.13-1.44-.38c-.43-.26-.91-.55-1.44-.86-.53-.31-1.16-.6-1.88-.85-.72-.25-1.61-.38-2.68-.38-1.32,0-2.47.24-3.43.73-.96.49-1.76,1.18-2.38,2.09-.63.91-1.09,2.02-1.39,3.33s-.45,2.79-.45,4.44c0,3.46.67,6.12,2,7.97s3.17,2.79,5.52,2.79c1.25,0,2.25-.16,2.98-.47.73-.31,1.35-.66,1.86-1.05s.98-.74,1.41-1.07c.43-.32.97-.48,1.62-.48.86,0,1.51.31,1.95.94l3.13,3.86c-1.11,1.28-2.28,2.32-3.51,3.11-1.23.8-2.49,1.43-3.77,1.88-1.29.46-2.58.77-3.88.94-1.3.18-2.57.26-3.79.26-2.21,0-4.31-.42-6.32-1.25-2-.83-3.77-2.05-5.29-3.63-1.52-1.59-2.73-3.55-3.62-5.86-.89-2.32-1.34-4.97-1.34-7.94,0-2.6.39-5.03,1.17-7.29.78-2.26,1.92-4.22,3.45-5.88,1.52-1.66,3.4-2.96,5.64-3.91,2.24-.95,4.83-1.43,7.78-1.43s5.31.45,7.45,1.36c2.14.91,4.06,2.23,5.78,3.97l-2.86,3.79Z"/>
    <path class="cls-3" d="m902.98,141.13c0,.86-.17,1.67-.52,2.42-.35.75-.82,1.42-1.43,1.99-.6.57-1.3,1.02-2.11,1.36s-1.65.5-2.56.5-1.7-.17-2.47-.5c-.77-.34-1.45-.79-2.04-1.36-.59-.57-1.06-1.23-1.39-1.99-.34-.75-.5-1.56-.5-2.42s.17-1.7.5-2.47c.34-.76.8-1.44,1.39-2.02.59-.58,1.27-1.03,2.04-1.36.76-.33,1.59-.49,2.47-.49s1.76.16,2.56.49c.8.32,1.5.78,2.11,1.36s1.08,1.25,1.43,2.02c.35.77.52,1.59.52,2.47Zm-1.11,9.89v36.09h-10.79v-36.09h10.79Z"/>
    <path class="cls-3" d="m918.3,170.99c.35,3.02,1.27,5.21,2.75,6.56,1.48,1.36,3.4,2.04,5.74,2.04,1.25,0,2.33-.15,3.24-.45s1.71-.64,2.42-1.01,1.36-.71,1.95-1.01c.59-.3,1.21-.45,1.86-.45.86,0,1.51.31,1.95.94l3.13,3.86c-1.11,1.28-2.32,2.32-3.6,3.11-1.29.8-2.61,1.43-3.97,1.88-1.36.46-2.72.77-4.07.94-1.36.18-2.65.26-3.88.26-2.53,0-4.9-.41-7.12-1.23-2.22-.82-4.15-2.05-5.81-3.67-1.66-1.62-2.97-3.65-3.93-6.06-.96-2.41-1.44-5.22-1.44-8.42,0-2.41.41-4.7,1.23-6.85.82-2.16,2.01-4.05,3.55-5.68,1.54-1.62,3.41-2.91,5.6-3.86,2.19-.95,4.67-1.43,7.43-1.43,2.39,0,4.58.37,6.56,1.11,1.98.74,3.69,1.82,5.12,3.24,1.43,1.42,2.54,3.15,3.34,5.21.8,2.05,1.2,4.38,1.2,6.97,0,.81-.03,1.48-.11,1.99-.07.51-.2.91-.38,1.22-.18.31-.44.51-.75.63-.31.12-.71.18-1.2.18h-20.81Zm13.57-6.27c0-.86-.11-1.69-.33-2.51-.22-.81-.58-1.54-1.08-2.17s-1.15-1.15-1.97-1.55c-.81-.39-1.8-.6-2.96-.6-2.04,0-3.64.59-4.8,1.76-1.16,1.17-1.93,2.86-2.3,5.06h13.44Z"/>
    <path class="cls-3" d="m956.89,154.91c.7-.65,1.42-1.25,2.16-1.81s1.54-1.03,2.38-1.41c.85-.38,1.76-.68,2.75-.91.98-.22,2.06-.33,3.22-.33,1.97,0,3.72.34,5.24,1.03,1.52.68,2.8,1.64,3.85,2.85,1.04,1.21,1.83,2.67,2.37,4.35.53,1.69.8,3.51.8,5.48v22.94h-10.79v-22.94c0-1.76-.41-3.13-1.22-4.12-.81-.98-2.01-1.48-3.58-1.48-1.18,0-2.29.25-3.32.75-1.03.5-2.04,1.18-3.01,2.04v25.76h-10.79v-36.09h6.69c1.34,0,2.23.6,2.64,1.81l.63,2.09Z"/>
    <path class="cls-3" d="m1013.14,159.57c-.33.39-.64.71-.94.94s-.73.35-1.29.35-1.02-.13-1.44-.38c-.43-.26-.91-.55-1.44-.86-.54-.31-1.16-.6-1.88-.85-.72-.25-1.61-.38-2.68-.38-1.32,0-2.47.24-3.43.73-.96.49-1.76,1.18-2.38,2.09-.63.91-1.09,2.02-1.39,3.33-.3,1.31-.45,2.79-.45,4.44,0,3.46.67,6.12,2,7.97s3.17,2.79,5.52,2.79c1.25,0,2.24-.16,2.98-.47.73-.31,1.35-.66,1.86-1.05s.98-.74,1.41-1.07c.43-.32.97-.48,1.62-.48.86,0,1.51.31,1.95.94l3.13,3.86c-1.12,1.28-2.29,2.32-3.51,3.11-1.23.8-2.49,1.43-3.78,1.88-1.29.46-2.58.77-3.88.94-1.3.18-2.56.26-3.79.26-2.2,0-4.31-.42-6.32-1.25-2.01-.83-3.77-2.05-5.29-3.63-1.52-1.59-2.73-3.55-3.62-5.86-.9-2.32-1.34-4.97-1.34-7.94,0-2.6.39-5.03,1.17-7.29s1.93-4.22,3.45-5.88c1.52-1.66,3.4-2.96,5.64-3.91,2.24-.95,4.83-1.43,7.78-1.43s5.31.45,7.45,1.36c2.13.91,4.06,2.23,5.78,3.97l-2.85,3.79Z"/>
    <path class="cls-3" d="m1028.73,170.99c.35,3.02,1.27,5.21,2.75,6.56,1.48,1.36,3.4,2.04,5.74,2.04,1.25,0,2.33-.15,3.24-.45s1.71-.64,2.42-1.01,1.36-.71,1.95-1.01c.59-.3,1.21-.45,1.86-.45.86,0,1.51.31,1.95.94l3.13,3.86c-1.11,1.28-2.32,2.32-3.6,3.11-1.29.8-2.61,1.43-3.97,1.88-1.36.46-2.72.77-4.07.94-1.36.18-2.65.26-3.88.26-2.53,0-4.9-.41-7.12-1.23-2.22-.82-4.15-2.05-5.81-3.67-1.66-1.62-2.97-3.65-3.93-6.06-.96-2.41-1.44-5.22-1.44-8.42,0-2.41.41-4.7,1.23-6.85.82-2.16,2.01-4.05,3.55-5.68,1.54-1.62,3.41-2.91,5.6-3.86,2.19-.95,4.67-1.43,7.43-1.43,2.39,0,4.58.37,6.56,1.11,1.98.74,3.69,1.82,5.12,3.24,1.43,1.42,2.54,3.15,3.34,5.21.8,2.05,1.2,4.38,1.2,6.97,0,.81-.03,1.48-.11,1.99-.07.51-.2.91-.38,1.22-.18.31-.44.51-.75.63-.31.12-.71.18-1.2.18h-20.81Zm13.57-6.27c0-.86-.11-1.69-.33-2.51-.22-.81-.58-1.54-1.08-2.17s-1.15-1.15-1.97-1.55c-.81-.39-1.8-.6-2.96-.6-2.04,0-3.64.59-4.8,1.76-1.16,1.17-1.93,2.86-2.3,5.06h13.44Z"/>
    <path class="cls-3" d="m1093.75,168.73c0,2.83-.35,5.41-1.06,7.73-.71,2.32-1.78,4.31-3.2,5.97-1.43,1.66-3.22,2.94-5.38,3.87-2.16.91-4.7,1.37-7.62,1.37-1.33,0-2.63-.07-3.92-.21s-2.63-.37-4.02-.7l.63-6.86c.07-.6.31-1.09.73-1.46.42-.37,1.01-.56,1.77-.56.39,0,.88.06,1.46.19.58.13,1.28.19,2.09.19,1.13,0,2.13-.16,2.98-.47.85-.31,1.55-.83,2.11-1.57.56-.73.97-1.69,1.25-2.87s.42-2.64.42-4.39v-32.58h11.76v32.33Z"/>
    <path class="cls-3" d="m1117.41,150.46c2.74,0,5.23.43,7.48,1.29,2.25.86,4.18,2.09,5.8,3.69,1.61,1.6,2.86,3.55,3.76,5.83.89,2.28,1.34,4.85,1.34,7.71s-.44,5.47-1.34,7.78c-.9,2.31-2.15,4.27-3.76,5.88-1.61,1.62-3.55,2.86-5.8,3.73-2.25.87-4.75,1.3-7.48,1.3s-5.27-.43-7.53-1.3-4.21-2.11-5.85-3.73c-1.64-1.61-2.9-3.57-3.79-5.88-.89-2.31-1.34-4.91-1.34-7.78s.45-5.43,1.34-7.71c.89-2.29,2.16-4.23,3.79-5.83,1.64-1.6,3.59-2.83,5.85-3.69s4.77-1.29,7.53-1.29Zm0,29.2c2.48,0,4.31-.87,5.48-2.63s1.76-4.42,1.76-7.99-.59-6.23-1.76-7.97-3-2.61-5.48-2.61-4.42.87-5.6,2.61c-1.18,1.74-1.77,4.4-1.77,7.97s.59,6.23,1.77,7.99c1.18,1.75,3.05,2.63,5.6,2.63Z"/>
    <path class="cls-3" d="m1152.01,154.84c1.39-1.33,2.92-2.39,4.58-3.19,1.66-.8,3.51-1.2,5.55-1.2s3.9.42,5.57,1.25c1.67.83,3.1,2.02,4.28,3.57,1.18,1.54,2.09,3.41,2.73,5.59s.96,4.62.96,7.31c0,2.93-.37,5.58-1.12,7.97-.74,2.39-1.79,4.44-3.15,6.15-1.36,1.7-2.98,3.03-4.86,3.97s-3.96,1.41-6.23,1.41c-1.09,0-2.06-.11-2.92-.31s-1.65-.5-2.37-.89c-.72-.38-1.38-.84-1.97-1.37-.59-.53-1.17-1.12-1.72-1.74l-.38,1.81c-.18.75-.49,1.25-.91,1.54-.42.28-.97.41-1.67.41h-7.17v-52.1h10.79v19.84Zm0,22.45c.81.88,1.69,1.5,2.64,1.88.95.37,1.91.56,2.89.56s1.96-.19,2.82-.58,1.59-1.01,2.21-1.88c.61-.87,1.1-2.02,1.44-3.45s.52-3.18.52-5.28c0-1.81-.13-3.35-.4-4.61-.27-1.27-.66-2.29-1.18-3.1-.52-.8-1.17-1.38-1.95-1.74-.78-.36-1.67-.54-2.66-.54-1.33,0-2.47.29-3.45.87-.97.58-1.94,1.43-2.89,2.54v15.32Z"/>
    <path class="cls-3" d="m1204.15,158.92c-.28.44-.58.75-.89.94-.31.18-.71.28-1.2.28s-1.02-.11-1.53-.33-1.06-.46-1.65-.71c-.59-.25-1.26-.49-2-.71-.75-.22-1.59-.33-2.54-.33-1.37,0-2.42.26-3.15.78-.73.52-1.1,1.25-1.1,2.17,0,.67.24,1.23.71,1.67.47.44,1.11.83,1.9,1.17.79.33,1.68.65,2.68.95,1,.31,2.02.64,3.06,1.01,1.05.38,2.07.81,3.06,1.31,1,.49,1.89,1.12,2.68,1.84.79.73,1.42,1.62,1.9,2.66.48,1.05.71,2.3.71,3.76,0,1.79-.33,3.43-.97,4.94-.65,1.51-1.62,2.81-2.91,3.9s-2.88,1.94-4.77,2.54c-1.89.6-4.07.9-6.53.9-1.23,0-2.46-.11-3.69-.34s-2.42-.55-3.57-.94c-1.15-.39-2.21-.86-3.18-1.41s-1.81-1.13-2.51-1.76l2.51-3.97c.28-.46.63-.83,1.06-1.1.43-.27.98-.4,1.65-.4.63,0,1.19.14,1.69.42.5.28,1.04.58,1.62.9s1.26.63,2.04.9c.78.28,1.76.42,2.94.42.83,0,1.54-.09,2.12-.26.58-.17,1.05-.41,1.39-.71.35-.31.6-.64.76-1.02.16-.37.24-.75.24-1.15,0-.72-.24-1.31-.73-1.77-.49-.46-1.13-.86-1.91-1.2-.79-.33-1.69-.65-2.7-.94-1.01-.29-2.04-.62-3.08-.99-1.04-.37-2.07-.82-3.08-1.34s-1.91-1.18-2.7-1.99c-.79-.8-1.43-1.78-1.91-2.94-.49-1.16-.73-2.56-.73-4.21,0-1.54.29-2.99.89-4.37.59-1.38,1.48-2.59,2.66-3.64,1.18-1.05,2.67-1.87,4.45-2.49,1.79-.61,3.88-.92,6.27-.92,1.3,0,2.56.12,3.77.35s2.36.56,3.43.97c1.07.42,2.04.91,2.92,1.48.88.57,1.66,1.19,2.33,1.86l-2.43,3.8Z"/>
  </g>
  <rect class="cls-2" x="1253.08" y="13.21" width="148.24" height="174.79" rx="13.84" ry="13.84"/>
  <g>
    <path class="cls-4" d="m1286.54,157.18v14.22h-8.67v-14.22l-13.55-23.18h7.65c.75,0,1.35.18,1.78.53.44.35.8.8,1.09,1.35l5.29,10.88c.44.86.85,1.65,1.21,2.4.36.74.68,1.48.95,2.19.26-.74.55-1.48.89-2.22.34-.74.72-1.54,1.17-2.37l5.23-10.88c.12-.22.27-.44.44-.67s.37-.42.6-.6c.23-.18.5-.33.8-.44.3-.11.63-.17.99-.17h7.7l-13.55,23.18Z"/>
    <path class="cls-4" d="m1302.65,159.51c.26,2.22.93,3.84,2.03,4.84,1.09,1,2.51,1.5,4.24,1.5.92,0,1.72-.11,2.39-.34.66-.22,1.26-.47,1.78-.75.52-.27,1-.52,1.44-.74.43-.22.89-.34,1.37-.34.63,0,1.11.23,1.43.7l2.31,2.85c-.82.94-1.71,1.71-2.66,2.3-.95.59-1.92,1.05-2.93,1.38-1,.34-2,.57-3,.7-1,.13-1.95.19-2.86.19-1.86,0-3.62-.3-5.25-.91-1.64-.61-3.06-1.51-4.29-2.71-1.22-1.2-2.19-2.68-2.9-4.46s-1.07-3.85-1.07-6.21c0-1.78.3-3.46.91-5.06s1.48-2.99,2.62-4.18c1.13-1.2,2.51-2.15,4.13-2.85s3.45-1.05,5.48-1.05c1.76,0,3.37.27,4.84.82,1.46.55,2.72,1.34,3.77,2.39s1.87,2.32,2.46,3.84c.59,1.51.89,3.23.89,5.14,0,.6-.03,1.09-.08,1.46s-.14.68-.28.9-.32.38-.55.46c-.23.09-.53.13-.88.13h-15.35Zm10.01-4.62c0-.63-.08-1.25-.24-1.85s-.43-1.13-.8-1.6c-.37-.47-.85-.85-1.45-1.14s-1.33-.44-2.18-.44c-1.5,0-2.68.43-3.54,1.3-.86.86-1.42,2.11-1.69,3.73h9.91Z"/>
    <path class="cls-4" d="m1323.18,148.48c1.61-1.42,3.39-2.48,5.35-3.17,1.96-.69,4.06-1.04,6.3-1.04,1.6,0,3.06.26,4.35.78s2.39,1.25,3.28,2.18c.9.93,1.59,2.04,2.07,3.32s.72,2.69.72,4.21v16.63h-3.65c-.75,0-1.32-.1-1.7-.31-.39-.21-.71-.63-.96-1.28l-.56-1.46c-.67.56-1.31,1.06-1.92,1.49-.62.43-1.25.79-1.91,1.09-.66.3-1.36.52-2.1.67-.75.15-1.57.22-2.48.22-1.22,0-2.32-.16-3.31-.47-.99-.32-1.84-.78-2.52-1.4-.7-.62-1.23-1.38-1.6-2.3-.38-.91-.57-1.97-.57-3.17,0-.96.24-1.93.72-2.91.48-.98,1.31-1.88,2.49-2.69,1.18-.81,2.77-1.49,4.77-2.04,2-.55,4.53-.86,7.57-.92v-1.13c0-1.56-.32-2.68-.96-3.38-.64-.69-1.55-1.04-2.73-1.04-.94,0-1.71.1-2.31.31-.6.2-1.13.44-1.6.69s-.93.49-1.37.69c-.44.21-.97.31-1.59.31-.55,0-1.01-.14-1.38-.41-.38-.27-.68-.6-.92-.97l-1.44-2.49Zm14.32,12.09c-1.59.07-2.9.21-3.93.41-1.03.21-1.84.46-2.44.77-.6.31-1.02.66-1.25,1.05-.23.39-.34.82-.34,1.28,0,.91.25,1.54.75,1.91.49.37,1.22.55,2.18.55,1.03,0,1.92-.18,2.69-.54.77-.36,1.55-.94,2.34-1.74v-3.7Z"/>
    <path class="cls-4" d="m1357.78,148.89c.82-1.44,1.76-2.57,2.84-3.39s2.3-1.23,3.68-1.23c1.2,0,2.17.28,2.93.85l-.51,5.85c-.09.38-.23.63-.43.77-.19.14-.46.2-.81.2-.14,0-.31,0-.54-.03-.22-.02-.45-.04-.69-.06s-.48-.05-.73-.08c-.25-.03-.48-.04-.68-.04-1.16,0-2.09.31-2.78.92-.7.61-1.28,1.47-1.76,2.57v16.17h-7.95v-26.61h4.72c.39,0,.72.03.99.1.26.07.49.18.67.32.18.15.32.34.41.58.09.24.18.53.24.87l.41,2.23Z"/>
    <path class="cls-4" d="m1386.83,150.61c-.21.33-.42.56-.65.7-.23.13-.53.2-.89.2s-.75-.08-1.13-.24c-.38-.16-.78-.34-1.22-.53-.44-.19-.93-.36-1.48-.52-.55-.16-1.17-.24-1.87-.24-1.01,0-1.79.19-2.32.58s-.81.92-.81,1.6c0,.49.18.91.53,1.23.35.33.82.61,1.4.86.58.25,1.23.48,1.97.7.73.22,1.48.47,2.26.74.77.28,1.52.6,2.26.96s1.39.82,1.97,1.36,1.05,1.19,1.4,1.96c.35.77.53,1.69.53,2.77,0,1.32-.24,2.53-.71,3.65-.48,1.11-1.2,2.07-2.14,2.87-.95.81-2.12,1.43-3.51,1.87-1.4.44-3,.67-4.81.67-.91,0-1.82-.08-2.73-.26-.9-.17-1.78-.4-2.63-.69-.85-.29-1.63-.64-2.34-1.04-.72-.4-1.33-.83-1.85-1.3l1.85-2.92c.2-.34.46-.61.78-.81.31-.2.72-.3,1.22-.3.46,0,.88.1,1.25.31.36.2.76.43,1.19.67.43.24.93.46,1.5.67.57.2,1.3.31,2.17.31.61,0,1.14-.07,1.57-.19.43-.13.77-.3,1.03-.53s.44-.47.56-.75.18-.55.18-.85c0-.53-.18-.97-.54-1.31-.36-.34-.83-.64-1.42-.89s-1.24-.48-1.99-.69-1.5-.46-2.27-.73c-.77-.28-1.53-.6-2.27-.99-.75-.39-1.41-.87-1.99-1.46-.58-.59-1.05-1.31-1.41-2.17-.36-.86-.54-1.89-.54-3.1,0-1.13.22-2.2.65-3.22s1.09-1.91,1.96-2.68c.87-.77,1.97-1.38,3.28-1.84s2.86-.68,4.62-.68c.96,0,1.89.08,2.79.26.9.17,1.74.41,2.52.72.79.31,1.51.67,2.16,1.09.65.42,1.23.88,1.72,1.38l-1.8,2.79Z"/>
  </g>
  <g>
    <path class="cls-4" d="m1317.71,98.03c1.87,0,3.35.51,4.43,1.55,1.09,1.03,1.63,2.38,1.63,4.06v10.09h-57.4v-5.6c0-1.09.23-2.24.68-3.48.44-1.23,1.23-2.35,2.35-3.37l23.54-23.71c2.02-2.02,3.78-3.94,5.27-5.77,1.5-1.83,2.73-3.63,3.7-5.41s1.7-3.55,2.18-5.32c.49-1.78.73-3.65.73-5.64,0-3.25-.77-5.74-2.33-7.48s-3.91-2.61-7.09-2.61c-2.58,0-4.76.68-6.53,2.05-1.77,1.36-3,3.05-3.67,5.07-.79,2.06-1.81,3.42-3.09,4.09s-3.08.82-5.43.45l-9.2-1.63c.6-4.07,1.74-7.62,3.45-10.65,1.7-3.03,3.81-5.55,6.34-7.57,2.52-2.02,5.41-3.52,8.66-4.52,3.25-.99,6.75-1.48,10.48-1.48,4.04,0,7.67.59,10.91,1.77,3.23,1.18,5.99,2.81,8.27,4.91s4.02,4.58,5.24,7.49c1.21,2.89,1.82,6.08,1.82,9.55,0,2.99-.42,5.75-1.26,8.3-.84,2.54-1.99,4.96-3.45,7.26-1.46,2.3-3.15,4.52-5.07,6.67-1.93,2.15-3.98,4.32-6.14,6.53l-15.98,16.37c2.05-.64,4.09-1.12,6.11-1.46,2.02-.34,3.89-.51,5.6-.51h15.24Z"/>
    <path class="cls-4" d="m1352.9,60.82c1.53-.3,3.01-.51,4.43-.62,1.42-.12,2.8-.17,4.15-.17,4.3,0,8.09.66,11.38,1.96,3.28,1.31,6.06,3.09,8.29,5.35,2.24,2.26,3.93,4.91,5.08,7.96,1.14,3.05,1.7,6.31,1.7,9.78,0,4.37-.77,8.36-2.32,11.97-1.55,3.61-3.72,6.72-6.48,9.33s-6.06,4.65-9.89,6.08c-3.82,1.44-8.02,2.16-12.58,2.16-2.65,0-5.18-.28-7.59-.84-2.41-.56-4.67-1.31-6.78-2.27-2.11-.95-4.06-2.05-5.86-3.3s-3.42-2.59-4.88-4.01l5.38-7.17c.56-.75,1.21-1.32,1.96-1.71.75-.39,1.55-.59,2.42-.59,1.12,0,2.18.31,3.17.92.99.62,2.07,1.29,3.25,2.02,1.18.73,2.55,1.4,4.12,1.99,1.57.6,3.51.9,5.83.9s4.3-.38,5.94-1.15,2.98-1.81,4.01-3.14,1.77-2.87,2.24-4.65c.47-1.77.7-3.67.7-5.69,0-3.96-1.12-6.98-3.37-9.05-2.24-2.07-5.41-3.11-9.52-3.11-3.66,0-7.25.69-10.76,2.07l-10.76-2.91,6.95-40.86h41.81v7.18c0,1.2-.18,2.28-.56,3.25-.37.97-.96,1.82-1.77,2.55-.8.73-1.86,1.29-3.17,1.68-1.31.4-2.87.59-4.71.59h-19.51l-2.3,13.51Z"/>
  </g>
</svg>